<svg width="20" height="19" viewBox="0 0 20 19" fill="none" xmlns="http://www.w3.org/2000/svg">
<path d="M5.48091 17.0606L18.6926 18.8482L14.2256 11.4768L5.48162 17.0606H5.48091ZM19.943 3.26174C19.5526 3.84278 19.1614 4.42312 18.7717 5.00416C17.433 7.00004 16.0943 8.99591 14.7571 10.9925C14.6822 11.104 14.5861 11.1923 14.6908 11.3631C15.9832 13.4776 17.2649 15.5985 18.5502 17.7172C18.7532 18.0518 18.9577 18.3851 19.2206 18.7063L20 3.27869L19.943 3.26245V3.26174ZM2.30265 9.85441C2.36321 9.9116 2.51354 9.94408 2.58407 9.91019C3.82374 9.30655 5.07125 8.71634 6.28313 8.06257C6.67854 7.84936 6.98276 7.46812 7.32331 7.15818C8.45113 6.13306 9.57751 5.10583 10.7032 4.07859C10.7723 4.01576 10.8535 3.95433 10.8948 3.87526C11.2995 3.0923 11.6964 2.30511 12.1082 1.49532C11.6173 1.31246 11.1528 1.13384 10.6818 0.971463C10.6184 0.949576 10.5172 0.993349 10.4481 1.03147C9.35808 1.6344 8.24808 2.20556 7.19293 2.86356C6.66501 3.19255 6.23468 3.67828 5.76731 4.10048C5.01218 4.78041 4.26266 5.46644 3.51881 6.15848C3.32052 6.34442 3.14283 6.5508 2.98874 6.77412C2.48076 7.50695 1.98846 8.25037 1.47335 9.01427C1.76119 9.31009 2.02337 9.59249 2.30336 9.85512L2.30265 9.85441ZM6.83243 8.8533L4.96936 16.6525L13.7226 11.0638L6.83243 8.85401V8.8533ZM19.1857 3.28645L11.7462 4.51772L14.2712 10.6035L19.1864 3.28645H19.1857ZM6.93574 8.32521L13.6891 10.4976C12.8567 8.48821 12.024 6.47892 11.1912 4.46972L6.93574 8.32521ZM2.39598 11.3596L0.0327729 16.9582L4.53406 16.8262L2.39598 11.3589V11.3596ZM4.58678 15.5286L4.64306 15.5166C5.1831 13.2898 5.73169 11.0779 6.28384 8.76364L2.67241 10.624C3.28797 12.2096 3.94414 13.8822 4.58749 15.5286H4.58678ZM18.2773 2.92568L16.1207 2.36017C15.0869 2.09119 14.0524 1.82502 13.0194 1.55321C12.8904 1.51932 12.7971 1.49673 12.7209 1.65135C12.3561 2.39265 11.9792 3.12831 11.6087 3.86679C11.5973 3.88938 11.5995 3.91903 11.5909 3.97622L18.2759 2.97228L18.2773 2.92568ZM14.1073 1.23974L19.9658 2.84591L18.9976 0.112255L14.1158 1.18468L14.1073 1.23904V1.23974ZM5.08407 17.4884C4.35808 17.4058 3.61357 17.4821 2.8776 17.4941C2.27273 17.5047 1.66857 17.5273 1.06441 17.5456C1.02925 17.5447 0.994318 17.5515 0.96207 17.5654C0.929822 17.5793 0.901038 17.6 0.877743 17.6261L15.8706 19L15.8806 18.9336L11.0744 18.2834C9.07808 18.013 7.08535 17.7165 5.08407 17.4877V17.4884ZM0.131091 15.2497C0.77515 13.7692 1.41636 12.2866 2.06327 10.8075C2.1281 10.6593 2.12311 10.5583 1.9963 10.439C1.72556 10.1841 1.47478 9.90878 1.17911 9.60449L0 15.3733L0.0434597 15.3937C0.0733827 15.3464 0.109718 15.3012 0.131804 15.2504L0.131091 15.2497ZM12.8242 0.848618C13.9099 0.571158 15.0121 0.353708 16.1072 0.111549C16.1777 0.0960166 16.2475 0.0727185 16.3173 0.0529504L16.3066 0L11.6002 0.627638C12.0419 0.818965 12.3824 0.961579 12.8242 0.849324V0.848618Z" fill="#669093"/>
</svg>
