<svg width="18" height="20" viewBox="0 0 18 20" fill="none" xmlns="http://www.w3.org/2000/svg">
<path d="M17.5466 15C17.686 14.7585 17.7727 14.4863 17.7727 14.2419V5.75811C17.7727 5.51371 17.6861 5.2416 17.5466 5.00004L8.88635 10L17.5466 15Z" fill="#669093"/>
<path d="M9.6559 19.8167L17.0031 15.5748C17.2147 15.4526 17.4071 15.2416 17.5466 15L8.88634 10L0.226109 15.0001C0.365561 15.2416 0.557982 15.4527 0.76957 15.5748L8.11677 19.8167C8.54 20.0611 9.23267 20.0611 9.6559 19.8167Z" fill="#669093"/>
<path d="M17.5466 4.99999C17.4071 4.75837 17.2147 4.54736 17.0031 4.42516L9.6559 0.183302C9.23267 -0.0611008 8.54 -0.0611008 8.11677 0.183302L0.769568 4.42516C0.346277 4.66951 0 5.26936 0 5.75811V14.2419C0 14.4863 0.0865982 14.7585 0.226108 15L8.88633 10L17.5466 4.99999Z" fill="#669093"/>
<path d="M8.88631 15.9243C5.61968 15.9243 2.96208 13.2667 2.96208 10C2.96208 6.73341 5.61968 4.07581 8.88631 4.07581C10.9942 4.07581 12.96 5.21013 14.0166 7.03606L11.4528 8.51968C10.9239 7.60572 9.94047 7.03792 8.88631 7.03792C7.25296 7.03792 5.92419 8.36669 5.92419 10C5.92419 11.6333 7.25296 12.9621 8.88631 12.9621C9.94059 12.9621 10.9241 12.3944 11.4529 11.4802L14.0168 12.9638C12.9602 14.7899 10.9943 15.9243 8.88631 15.9243Z" fill="white"/>
<path d="M14.8105 9.6709H14.1523V9.01267H13.4941V9.6709H12.8358V10.3291H13.4941V10.9874H14.1523V10.3291H14.8105V9.6709Z" fill="white"/>
<path d="M17.279 9.6709H16.6208V9.01267H15.9626V9.6709H15.3043V10.3291H15.9626V10.9874H16.6208V10.3291H17.279V9.6709Z" fill="white"/>
</svg>
