<svg width="16" height="20" viewBox="0 0 16 20" fill="none" xmlns="http://www.w3.org/2000/svg">
<path d="M1.54606 18.8909L2.00005 17.9999H2.00005L1.54606 18.8909ZM1.10905 18.4539L2.00005 17.9999H2.00005L1.10905 18.4539ZM14.891 18.4539L14 17.9999L14 17.9999L14.891 18.4539ZM14.4539 18.8909L14.9079 19.7819H14.9079L14.4539 18.8909ZM14.9527 14.4696L13.9685 14.6464V14.6464L14.9527 14.4696ZM12.5302 12.0471L12.3535 13.0314L12.5302 12.0471ZM1.04804 14.4655L2.03204 14.6436H2.03204L1.04804 14.4655ZM3.46561 12.0479L3.64375 13.0319H3.64375L3.46561 12.0479ZM10.4732 12.4681L10.0605 11.5572L10.4732 12.4681ZM11.4019 12.0722L11.1303 11.1097L11.4019 12.0722ZM12.2842 12.017L12.2084 13.0142L12.2842 12.017ZM11.7961 12.0026L11.8705 12.9998L11.7961 12.0026ZM5.52683 12.4681L5.1142 13.379L5.52683 12.4681ZM4.598 12.0721L4.86947 11.1097L4.598 12.0721ZM3.71579 12.0171L3.63979 11.02L3.71579 12.0171ZM4.20364 12.0025L4.27792 11.0053L4.20364 12.0025ZM11 4.99996C11 6.6568 9.65684 7.99994 8 7.99994V9.99992C10.7614 9.99992 13 7.76136 13 4.99996H11ZM8 7.99994C6.34316 7.99994 5.00002 6.6568 5.00002 4.99996H3.00004C3.00004 7.76136 5.2386 9.99992 8 9.99992V7.99994ZM5.00002 4.99996C5.00002 3.34312 6.34316 1.99998 8 1.99998V0C5.2386 0 3.00004 2.23856 3.00004 4.99996H5.00002ZM8 1.99998C9.65684 1.99998 11 3.34312 11 4.99996H13C13 2.23856 10.7614 0 8 0V1.99998ZM8 11.9999C7.26338 11.9999 6.56651 11.8413 5.93947 11.5572L5.1142 13.379C5.99537 13.7781 6.97314 13.9999 8 13.9999V11.9999ZM10.0605 11.5572C9.43349 11.8413 8.73663 11.9999 8 11.9999V13.9999C9.02686 13.9999 10.0046 13.7781 10.8858 13.379L10.0605 11.5572ZM14 15.6786V17.3999H15.9999V15.6786H14ZM13.4 17.9999H2.60004V19.9998H13.4V17.9999ZM2.00005 17.3999V15.684H6.10347e-05V17.3999H2.00005ZM2.60004 17.9999C2.30352 17.9999 2.14126 17.9991 2.02468 17.9896C1.91977 17.981 1.94253 17.9706 2.00005 17.9999L1.09207 19.7819C1.36349 19.9202 1.63323 19.9642 1.86182 19.9829C2.07873 20.0006 2.33652 19.9998 2.60004 19.9998V17.9999ZM6.10347e-05 17.3999C6.10347e-05 17.6634 -0.000716681 17.9212 0.0170061 18.1381C0.0356828 18.3667 0.0797499 18.6364 0.218047 18.9078L2.00005 17.9999C2.02935 18.0574 2.01892 18.0801 2.01035 17.9752C2.00082 17.8586 2.00005 17.6964 2.00005 17.3999H6.10347e-05ZM2.00005 17.9999H2.00005L0.218046 18.9078C0.409792 19.2842 0.715752 19.5901 1.09207 19.7819L2.00005 17.9999ZM14 17.3999C14 17.6964 13.9992 17.8586 13.9897 17.9752C13.9811 18.0801 13.9707 18.0574 14 17.9999L15.782 18.9078C15.9202 18.6364 15.9643 18.3667 15.983 18.1381C16.0007 17.9212 15.9999 17.6634 15.9999 17.3999H14ZM13.4 19.9998C13.6635 19.9998 13.9213 20.0006 14.1382 19.9829C14.3668 19.9642 14.6365 19.9202 14.9079 19.7819L14 17.9999C14.0575 17.9706 14.0802 17.981 13.9753 17.9896C13.8587 17.9991 13.6965 17.9999 13.4 17.9999V19.9998ZM14 17.9999L14 17.9999L14.9079 19.7819C15.2842 19.5901 15.5902 19.2842 15.782 18.9078L14 17.9999ZM15.9999 15.6786C15.9999 15.0913 16.0039 14.6657 15.937 14.2929L13.9685 14.6464C13.996 14.7996 14 15.0047 14 15.6786H15.9999ZM12.2084 13.0142C12.2728 13.0191 12.3183 13.0251 12.3535 13.0314L12.707 11.0629C12.5914 11.0421 12.4768 11.0288 12.36 11.0199L12.2084 13.0142ZM15.937 14.2929C15.6414 12.6469 14.353 11.3585 12.707 11.0629L12.3535 13.0314C13.1765 13.1792 13.8207 13.8234 13.9685 14.6464L15.937 14.2929ZM2.00005 15.684C2.00005 15.0047 2.00408 14.798 2.03204 14.6436L0.0640401 14.2873C-0.00397083 14.663 6.10347e-05 15.092 6.10347e-05 15.684H2.00005ZM3.63979 11.02C3.52097 11.029 3.40485 11.0426 3.28748 11.0639L3.64375 13.0319C3.68021 13.0253 3.72649 13.0191 3.79178 13.0142L3.63979 11.02ZM2.03204 14.6436C2.18062 13.8228 2.82299 13.1805 3.64375 13.0319L3.28748 11.0639C1.64595 11.3611 0.361216 12.6458 0.0640401 14.2873L2.03204 14.6436ZM10.8858 13.379C11.1505 13.2591 11.337 13.1746 11.4758 13.1146C11.5444 13.085 11.5939 13.0645 11.6302 13.0505C11.6682 13.0358 11.6793 13.0329 11.6734 13.0346L11.1303 11.1097C10.8913 11.1772 10.5314 11.3439 10.0605 11.5572L10.8858 13.379ZM12.36 11.0199C12.1475 11.0038 11.9596 10.9876 11.7217 11.0054L11.8705 12.9998C11.9331 12.9951 11.9704 12.9961 12.2084 13.0142L12.36 11.0199ZM11.6734 13.0346C11.7304 13.0185 11.7551 13.0133 11.7708 13.0106C11.7864 13.0078 11.8114 13.0042 11.8705 12.9998L11.7217 11.0054C11.4988 11.022 11.3455 11.049 11.1303 11.1097L11.6734 13.0346ZM5.93947 11.5572C5.46858 11.3439 5.10862 11.1771 4.86947 11.1097L4.32653 13.0346C4.32062 13.0329 4.33178 13.0358 4.3697 13.0505C4.40599 13.0645 4.45558 13.085 4.52416 13.1146C4.66298 13.1746 4.84944 13.259 5.1142 13.379L5.93947 11.5572ZM3.79178 13.0142C4.02945 12.9961 4.06671 12.9951 4.12935 12.9998L4.27792 11.0053C4.03998 10.9876 3.8522 11.0038 3.63979 11.02L3.79178 13.0142ZM4.86947 11.1097C4.65431 11.049 4.50087 11.0219 4.27792 11.0053L4.12935 12.9998C4.18841 13.0042 4.21343 13.0078 4.2291 13.0105C4.24478 13.0133 4.26952 13.0185 4.32653 13.0346L4.86947 11.1097ZM7.00001 8.99993L7.00001 12.9999H8.99999V8.99993H7.00001Z" fill="#7A857E"/>
</svg>
