<svg width="18" height="24" viewBox="0 0 18 24" fill="none" xmlns="http://www.w3.org/2000/svg">
<path fill-rule="evenodd" clip-rule="evenodd" d="M1.07412 0H10.3681V6.29774C10.3681 6.88568 10.8486 7.36621 11.4366 7.36621H17.9943V22.5283C17.9943 23.1162 17.5138 23.5967 16.9259 23.5967H1.06847C0.480528 23.5967 0 23.1162 0 22.5283V1.06847C0 0.480528 0.480528 0 1.06847 0H1.07412ZM2.19912 14.4611C2.63442 14.8229 3.13191 15.0038 3.69158 15.0038C4.00817 15.0038 4.2456 14.9472 4.40389 14.8398C4.56219 14.7324 4.64133 14.5911 4.64133 14.4215C4.64133 14.2745 4.57915 14.1332 4.45477 14.0031C4.3304 13.8731 3.99686 13.6922 3.45415 13.4717C2.60616 13.1099 2.18216 12.5898 2.18216 11.9001C2.18216 11.397 2.37437 11.0013 2.75879 10.7242C3.14322 10.4416 3.65201 10.3059 4.28518 10.3059C4.81658 10.3059 5.26319 10.3737 5.61935 10.5151V11.6005C5.25188 11.3518 4.82789 11.2274 4.34171 11.2274C4.05339 11.2274 3.82726 11.2783 3.65766 11.3857C3.48807 11.4874 3.40327 11.6288 3.40327 11.804C3.40327 11.9454 3.4598 12.0754 3.57852 12.1884C3.69724 12.3072 3.98555 12.4655 4.44347 12.669C4.98053 12.9008 5.35364 13.1438 5.55716 13.4039C5.76068 13.6583 5.86244 13.9636 5.86244 14.3197C5.86244 14.8398 5.67588 15.2412 5.30842 15.5126C4.94095 15.7839 4.4152 15.9253 3.73681 15.9253C3.11495 15.9253 2.60616 15.8235 2.20477 15.6256V14.4667L2.19912 14.4611ZM12.098 17.3499C11.8662 17.4177 11.5948 17.4516 11.2726 17.4516C10.8995 17.4516 10.549 17.3499 10.2098 17.1464C9.8706 16.9428 9.4353 16.5302 8.90389 15.9196C8.15766 15.897 7.55842 15.6256 7.11181 15.1112C6.65955 14.5967 6.43907 13.9579 6.43907 13.1947C6.43907 12.3298 6.68781 11.6344 7.17965 11.1087C7.67148 10.5773 8.33291 10.3172 9.16395 10.3172C9.92148 10.3172 10.5377 10.5716 11.0182 11.0747C11.4987 11.5835 11.7362 12.2506 11.7362 13.0817C11.7362 13.7318 11.5892 14.2971 11.3009 14.7663C11.0069 15.2356 10.5942 15.5634 10.0515 15.75C10.2776 15.9987 10.5038 16.1796 10.7242 16.2984C10.9447 16.4171 11.2217 16.4736 11.5609 16.4736C11.7644 16.4736 11.951 16.4397 12.1093 16.3775V17.3555L12.098 17.3499ZM7.64322 13.1269C7.64322 13.6753 7.77324 14.1106 8.03329 14.4384C8.29334 14.7663 8.63819 14.9303 9.07349 14.9303C9.5201 14.9303 9.8706 14.772 10.125 14.4554C10.3851 14.1388 10.5094 13.7035 10.5094 13.1495C10.5094 12.5729 10.3851 12.1206 10.1363 11.7984C9.88756 11.4761 9.54271 11.3122 9.10741 11.3122C8.6608 11.3122 8.30465 11.4761 8.03894 11.8097C7.77324 12.1432 7.64322 12.5785 7.64322 13.1212V13.1269ZM15.8291 15.8348H12.6407V10.402H13.7996V14.8851H15.8291V15.8291V15.8348ZM18 6.84045H11.9058C11.38 6.84045 10.9504 6.4108 10.9504 5.88505V0.00565327L18 6.84045Z" fill="#669093"/>
</svg>
