<svg width="18" height="20" viewBox="0 0 18 20" fill="none" xmlns="http://www.w3.org/2000/svg">
<path d="M9 8.57143C10.8516 8.57143 12.582 8.41146 14.1914 8.09152C15.8008 7.77158 17.0703 7.29911 18 6.67411V8.57143C18 9.08482 17.5977 9.56101 16.793 10C15.9883 10.439 14.8945 10.7868 13.5117 11.0435C12.1289 11.3002 10.625 11.4286 9 11.4286C7.375 11.4286 5.87109 11.3002 4.48828 11.0435C3.10547 10.7868 2.01172 10.439 1.20703 10C0.402344 9.56101 0 9.08482 0 8.57143V6.67411C0.929688 7.29911 2.19922 7.77158 3.80859 8.09152C5.41797 8.41146 7.14844 8.57143 9 8.57143ZM9 17.1429C10.8516 17.1429 12.582 16.9829 14.1914 16.6629C15.8008 16.343 17.0703 15.8705 18 15.2455V17.1429C18 17.6562 17.5977 18.1324 16.793 18.5714C15.9883 19.0104 14.8945 19.3583 13.5117 19.615C12.1289 19.8717 10.625 20 9 20C7.375 20 5.87109 19.8717 4.48828 19.615C3.10547 19.3583 2.01172 19.0104 1.20703 18.5714C0.402344 18.1324 0 17.6562 0 17.1429V15.2455C0.929688 15.8705 2.19922 16.343 3.80859 16.6629C5.41797 16.9829 7.14844 17.1429 9 17.1429ZM9 12.8571C10.8516 12.8571 12.582 12.6972 14.1914 12.3772C15.8008 12.0573 17.0703 11.5848 18 10.9598V12.8571C18 13.3705 17.5977 13.8467 16.793 14.2857C15.9883 14.7247 14.8945 15.0725 13.5117 15.3292C12.1289 15.5859 10.625 15.7143 9 15.7143C7.375 15.7143 5.87109 15.5859 4.48828 15.3292C3.10547 15.0725 2.01172 14.7247 1.20703 14.2857C0.402344 13.8467 0 13.3705 0 12.8571V10.9598C0.929688 11.5848 2.19922 12.0573 3.80859 12.3772C5.41797 12.6972 7.14844 12.8571 9 12.8571ZM9 0C10.625 0 12.1289 0.128348 13.5117 0.385045C14.8945 0.641741 15.9883 0.989583 16.793 1.42857C17.5977 1.86756 18 2.34375 18 2.85714V4.28571C18 4.79911 17.5977 5.2753 16.793 5.71429C15.9883 6.15327 14.8945 6.50112 13.5117 6.75781C12.1289 7.01451 10.625 7.14286 9 7.14286C7.375 7.14286 5.87109 7.01451 4.48828 6.75781C3.10547 6.50112 2.01172 6.15327 1.20703 5.71429C0.402344 5.2753 0 4.79911 0 4.28571V2.85714C0 2.34375 0.402344 1.86756 1.20703 1.42857C2.01172 0.989583 3.10547 0.641741 4.48828 0.385045C5.87109 0.128348 7.375 0 9 0Z" fill="#669093"/>
</svg>
