<svg width="20" height="18" viewBox="0 0 20 18" fill="none" xmlns="http://www.w3.org/2000/svg">
<path fill-rule="evenodd" clip-rule="evenodd" d="M0.925742 0.0637096C0.567297 0.175904 0.269985 0.441475 0.108252 0.79391C0.0259992 0.973135 0.025843 0.982096 0.0153419 5.88221L0.00484069 10.791H10H19.9952L19.9847 5.88221L19.9742 0.973453L19.886 0.792994C19.6961 0.403918 19.4384 0.17674 19.0557 0.0607623C18.8682 0.00396807 17.9636 -0.00204591 9.98314 0.000463237C2.17261 0.00289273 1.09595 0.0104202 0.925742 0.0637096ZM7.15087 3.93536C7.34719 4.04273 7.47913 4.31846 7.44267 4.54524C7.41765 4.70104 7.35402 4.78006 6.76689 5.38437L6.11875 6.05148L6.76689 6.71859C7.35023 7.319 7.41777 7.40263 7.44224 7.55506C7.51353 7.99893 7.07384 8.35929 6.65505 8.20026C6.52981 8.15271 4.87118 6.48628 4.78584 6.32231C4.71409 6.18435 4.71409 5.91862 4.78584 5.78065C4.84861 5.66001 6.50151 3.97419 6.62323 3.90668C6.74456 3.83941 7.00088 3.85331 7.15087 3.93536ZM11.0931 3.95057C11.2546 4.063 11.3663 4.27353 11.3663 4.46519C11.3663 4.6873 9.74016 7.99933 9.57062 8.12248C9.19223 8.39737 8.68763 8.1635 8.64328 7.69266C8.62646 7.51407 8.66417 7.42637 9.43434 5.8523C9.87914 4.94328 10.2756 4.15274 10.3155 4.09554C10.479 3.8608 10.8617 3.78947 11.0931 3.95057ZM13.3696 3.90501C13.4912 3.96786 15.1469 5.65149 15.2142 5.78065C15.2449 5.83984 15.2701 5.96167 15.2701 6.05148C15.2701 6.14129 15.2449 6.26313 15.2142 6.32231C15.1288 6.48628 13.4702 8.15271 13.345 8.20026C12.9262 8.35929 12.4865 7.99893 12.5578 7.55506C12.5822 7.40263 12.6498 7.319 13.2331 6.71859L13.8813 6.05148L13.2331 5.38437C12.6483 4.78241 12.5823 4.70061 12.5576 4.54687C12.5209 4.31862 12.6548 4.03684 12.8491 3.93337C13.0022 3.85192 13.2415 3.83886 13.3696 3.90501ZM0.0129215 12.6927C0.0251013 13.3599 0.0316596 13.4124 0.129215 13.6246C0.326903 14.0549 0.678008 14.3102 1.16688 14.3793C1.32693 14.4019 4.8889 14.4125 10.1952 14.406L18.9592 14.3954L19.1825 14.3033C19.4655 14.1867 19.7339 13.9227 19.8695 13.6275C19.9686 13.4118 19.9749 13.3622 19.9871 12.6927L20 11.9858H10H0L0.0129215 12.6927ZM6.74034 16.2075L6.54808 16.805H5.85177C5.10427 16.805 5.03303 16.8203 4.84947 17.0208C4.70694 17.1764 4.68949 17.5309 4.81504 17.721C5.01331 18.0212 4.61321 17.9997 10 17.9997C14.5121 17.9997 14.8299 17.9952 14.957 17.93C15.3607 17.7231 15.378 17.1274 14.9874 16.8844C14.8729 16.8132 14.7898 16.8052 14.1561 16.8051L13.4519 16.805L13.2597 16.2075L13.0674 15.6101H10H6.93261L6.74034 16.2075Z" fill="#669093"/>
</svg>
