<svg width="19" height="20" viewBox="0 0 19 20" fill="none" xmlns="http://www.w3.org/2000/svg">
<path d="M7 2.6C7 2.03995 7 1.75992 7.10899 1.54601C7.20487 1.35785 7.35785 1.20487 7.54601 1.10899C7.75992 0.999999 8.03995 0.999999 8.6 0.999999H10.4C10.9601 0.999999 11.2401 0.999999 11.454 1.10899C11.6422 1.20487 11.7951 1.35785 11.891 1.54601C12 1.75992 12 2.03995 12 2.6V4.4C12 4.96005 12 5.24008 11.891 5.45399C11.7951 5.64215 11.6422 5.79513 11.454 5.891C11.2401 6 10.9601 6 10.4 6H8.6C8.03995 6 7.75992 6 7.54601 5.891C7.35785 5.79513 7.20487 5.64215 7.10899 5.45399C7 5.24008 7 4.96005 7 4.4V2.6Z" fill="#669093"/>
<path d="M1 15.6C1 15.0399 1 14.7599 1.109 14.546C1.20487 14.3578 1.35785 14.2049 1.54601 14.109C1.75993 14 2.03995 14 2.6 14H4.4C4.96005 14 5.24008 14 5.45399 14.109C5.64215 14.2049 5.79513 14.3578 5.89101 14.546C6 14.7599 6 15.0399 6 15.6V17.4C6 17.96 6 18.2401 5.89101 18.454C5.79513 18.6421 5.64215 18.7951 5.45399 18.891C5.24008 19 4.96005 19 4.4 19H2.6C2.03995 19 1.75993 19 1.54601 18.891C1.35785 18.7951 1.20487 18.6421 1.109 18.454C1 18.2401 1 17.96 1 17.4V15.6Z" fill="#669093"/>
<path d="M13 15.6C13 15.0399 13 14.7599 13.109 14.546C13.2049 14.3578 13.3578 14.2049 13.546 14.109C13.7599 14 14.0399 14 14.6 14H16.4C16.96 14 17.2401 14 17.454 14.109C17.6421 14.2049 17.7951 14.3578 17.891 14.546C18 14.7599 18 15.0399 18 15.6V17.4C18 17.96 18 18.2401 17.891 18.454C17.7951 18.6421 17.6421 18.7951 17.454 18.891C17.2401 19 16.96 19 16.4 19H14.6C14.0399 19 13.7599 19 13.546 18.891C13.3578 18.7951 13.2049 18.6421 13.109 18.454C13 18.2401 13 17.96 13 17.4V15.6Z" fill="#669093"/>
<path d="M9.5 9.99999H5.1C4.53995 9.99999 4.25992 9.99999 4.04601 10.109C3.85785 10.2049 3.70487 10.3578 3.609 10.546C3.5 10.7599 3.5 11.0399 3.5 11.6V14M9.5 9.99999H13.9C14.46 9.99999 14.7401 9.99999 14.954 10.109C15.1421 10.2049 15.2951 10.3578 15.391 10.546C15.5 10.7599 15.5 11.0399 15.5 11.6V14M9.5 9.99999V6M8.6 6H10.4C10.9601 6 11.2401 6 11.454 5.891C11.6422 5.79513 11.7951 5.64215 11.891 5.45399C12 5.24008 12 4.96005 12 4.4V2.6C12 2.03995 12 1.75992 11.891 1.54601C11.7951 1.35785 11.6422 1.20487 11.454 1.10899C11.2401 0.999999 10.9601 0.999999 10.4 0.999999H8.6C8.03995 0.999999 7.75992 0.999999 7.54601 1.10899C7.35785 1.20487 7.20487 1.35785 7.10899 1.54601C7 1.75992 7 2.03995 7 2.6V4.4C7 4.96005 7 5.24008 7.10899 5.45399C7.20487 5.64215 7.35785 5.79513 7.54601 5.891C7.75992 6 8.03995 6 8.6 6ZM2.6 19H4.4C4.96005 19 5.24008 19 5.45399 18.891C5.64215 18.7951 5.79513 18.6421 5.89101 18.454C6 18.2401 6 17.96 6 17.4V15.6C6 15.0399 6 14.7599 5.89101 14.546C5.79513 14.3578 5.64215 14.2049 5.45399 14.109C5.24008 14 4.96005 14 4.4 14H2.6C2.03995 14 1.75993 14 1.54601 14.109C1.35785 14.2049 1.20487 14.3578 1.109 14.546C1 14.7599 1 15.0399 1 15.6V17.4C1 17.96 1 18.2401 1.109 18.454C1.20487 18.6421 1.35785 18.7951 1.54601 18.891C1.75993 19 2.03995 19 2.6 19ZM14.6 19H16.4C16.96 19 17.2401 19 17.454 18.891C17.6421 18.7951 17.7951 18.6421 17.891 18.454C18 18.2401 18 17.96 18 17.4V15.6C18 15.0399 18 14.7599 17.891 14.546C17.7951 14.3578 17.6421 14.2049 17.454 14.109C17.2401 14 16.96 14 16.4 14H14.6C14.0399 14 13.7599 14 13.546 14.109C13.3578 14.2049 13.2049 14.3578 13.109 14.546C13 14.7599 13 15.0399 13 15.6V17.4C13 17.96 13 18.2401 13.109 18.454C13.2049 18.6421 13.3578 18.7951 13.546 18.891C13.7599 19 14.0399 19 14.6 19Z" stroke="#669093" stroke-width="2" stroke-linecap="round" stroke-linejoin="round"/>
</svg>
