<svg width="17" height="22" viewBox="0 0 17 22" fill="none" xmlns="http://www.w3.org/2000/svg">
<path d="M5.22499 17.0141C5.22499 17.0141 4.38354 17.5036 5.82353 17.6686C6.35058 17.7465 6.95921 17.7914 7.577 17.7914C8.57061 17.7914 9.53671 17.6768 10.4634 17.4586L10.3782 17.4751C10.721 17.6841 11.1197 17.883 11.5349 18.0471L11.589 18.0654C7.28277 19.9115 1.8427 17.9582 5.2259 17.0132L5.22499 17.0141ZM4.69885 14.6052C4.69885 14.6052 3.75566 15.3037 5.19565 15.4522C5.82536 15.531 6.55407 15.5769 7.29377 15.5769C8.63294 15.5769 9.93727 15.4284 11.1912 15.1479L11.0729 15.1699C11.325 15.4064 11.6266 15.5943 11.9602 15.7162L11.9786 15.7217C6.77222 17.2442 0.971922 15.8418 4.69885 14.6052ZM9.13432 10.519C10.1958 11.7408 8.85567 12.8399 8.85567 12.8399C8.85567 12.8399 11.5496 11.4466 10.3131 9.70689C9.15724 8.08266 8.27087 7.27513 13.0684 4.49322C13.0684 4.49322 5.53755 6.37411 9.13432 10.519Z" fill="#669093"/>
<path d="M14.8302 18.796C14.8302 18.796 15.4517 19.3093 14.1455 19.7052C11.6596 20.4587 3.79973 20.686 1.61545 19.7355C0.830831 19.3936 2.3029 18.9197 2.76487 18.8207C2.97753 18.7666 3.22226 18.7355 3.47433 18.7355H3.52658H3.52383C2.65122 18.1204 -2.1179 19.9436 1.10398 20.4642C9.88417 21.8886 17.1098 19.8226 14.8329 18.796H14.8302ZM5.62928 12.1093C5.62928 12.1093 1.63103 13.0589 4.21312 13.4036C4.90882 13.4613 5.72002 13.4934 6.53763 13.4934C7.58165 13.4934 8.61284 13.4402 9.62844 13.3367L9.50103 13.3477C11.1555 13.2083 12.8173 12.9077 12.8173 12.9077C12.4278 13.0782 12.0978 13.2578 11.7852 13.4622L11.8118 13.4457C7.75122 14.5136 -0.0912772 14.0168 2.16633 12.9242C3.16177 12.4081 4.34052 12.1056 5.58894 12.1056H5.63111H5.62928V12.1093ZM12.8008 16.1195C16.9274 13.9746 15.0199 11.9141 13.6872 12.1909C13.5048 12.2248 13.3462 12.2688 13.1931 12.3247L13.2142 12.3183C13.3013 12.1955 13.4214 12.1011 13.5616 12.0479L13.5671 12.0461C16.2014 11.1203 18.229 14.7785 12.7165 16.2258C12.7504 16.1956 12.7779 16.1598 12.7981 16.1204L12.799 16.1186L12.8008 16.1195ZM10.3131 0.000916608C10.3131 0.000916608 12.5992 2.28694 8.14445 5.80305C4.57334 8.62345 7.32958 10.2312 8.14445 12.069C6.06008 10.1881 4.53026 8.53271 5.55595 6.99097C7.06285 4.72878 11.2362 3.63252 10.3131 0V0.000916608Z" fill="#669093"/>
<path d="M6.03533 21.9308C9.99508 22.1847 16.0814 21.7896 16.228 19.9161C16.228 19.9161 15.9512 20.6264 12.9539 21.1911C11.2985 21.4899 9.39287 21.6604 7.44691 21.6604C5.85293 21.6604 4.28644 21.5458 2.75296 21.3249L2.92803 21.346C2.92803 21.346 3.43491 21.7658 6.03808 21.9326L6.03533 21.9308Z" fill="#669093"/>
</svg>
