<svg width="19" height="20" viewBox="0 0 19 20" fill="none" xmlns="http://www.w3.org/2000/svg">
<path fill-rule="evenodd" clip-rule="evenodd" d="M8.52534 0.136073C8.84868 -0.0453577 9.24678 -0.0453577 9.56964 0.136073C11.1673 1.03275 15.975 3.73183 17.5731 4.62851C17.8964 4.80946 18.0955 5.1447 18.0955 5.50757C18.0955 7.30092 18.0955 12.6986 18.0955 14.492C18.0955 14.8548 17.8964 15.1901 17.5731 15.3715C15.9754 16.2682 11.1678 18.9673 9.56964 19.8639C9.2463 20.0454 8.8482 20.0454 8.52534 19.8639C6.9277 18.9673 2.12003 16.2682 0.521911 15.3715C0.19905 15.1901 0 14.8553 0 14.4924C0 12.6991 0 7.3014 0 5.50804C0 5.14518 0.19905 4.80994 0.522387 4.62851C2.11955 3.73183 6.92818 1.03275 8.52534 0.136073Z" fill="#669093"/>
<path fill-rule="evenodd" clip-rule="evenodd" d="M9.04773 3.33326C12.7273 3.33326 15.7145 6.32044 15.7145 10C15.7145 13.6796 12.7273 16.6668 9.04773 16.6668C5.36816 16.6668 2.38098 13.6796 2.38098 10C2.38098 6.32044 5.36816 3.33326 9.04773 3.33326ZM9.04773 6.66663C10.8873 6.66663 12.3811 8.15998 12.3811 10C12.3811 11.8395 10.8873 13.3334 9.04773 13.3334C7.20818 13.3334 5.71435 11.8395 5.71435 10C5.71435 8.15998 7.20771 6.66663 9.04773 6.66663Z" fill="white"/>
<path fill-rule="evenodd" clip-rule="evenodd" d="M17.8502 4.85946C18.0959 5.08946 18.0912 5.43613 18.0912 5.70899C18.0912 7.51616 18.0759 12.6562 18.0955 14.4634C18.0974 14.652 18.035 14.8505 17.9417 15.0001L8.85392 10L17.8502 4.85946Z" fill="#669093"/>
</svg>
