<svg width="21" height="21" viewBox="0 0 21 21" fill="none" xmlns="http://www.w3.org/2000/svg">
<path d="M10.2594 0.00174985C9.41333 0.00262478 8.58478 0.0769935 7.77985 0.218732L7.86559 0.206483C5.74564 0.580951 5.36155 1.36489 5.36155 2.81026V4.71935H10.3714V5.35542H3.48221C3.46471 5.35542 3.44459 5.35455 3.42446 5.35455C1.90472 5.35455 0.638696 6.43858 0.356095 7.87521L0.352595 7.89534C0.128614 8.65827 0 9.53495 0 10.4414C0 11.3478 0.128614 12.2245 0.369219 13.053L0.352595 12.9865C0.70869 14.4695 1.55912 15.5256 3.01237 15.5256H4.7351V13.2368C4.77447 11.528 6.15423 10.1544 7.86209 10.1246H7.86471H12.8684C14.2543 10.1133 15.3733 8.98812 15.3733 7.60049C15.3733 7.59261 15.3733 7.58561 15.3733 7.57774V7.57861V2.80851C15.2823 1.44275 14.2237 0.349971 12.8815 0.205608L12.8693 0.204733C12.1116 0.0743687 11.2393 0 10.3504 0C10.3189 0 10.2883 0 10.2568 0H10.2611L10.2594 0.00174985ZM7.55062 1.53725H7.56549C8.09307 1.53725 8.52003 1.96508 8.52003 2.49179C8.52003 3.0185 8.09219 3.44634 7.56549 3.44634C7.03966 3.44634 6.61269 3.02025 6.61094 2.49442C6.61094 2.49267 6.61094 2.49004 6.61094 2.48742C6.61094 1.96596 7.03091 1.5425 7.55062 1.53725H7.55149H7.55062Z" fill="#669093"/>
<path d="M15.999 5.35543V7.57949C15.9797 9.30922 14.5956 10.71 12.8737 10.7555H12.8693H7.86563C6.47975 10.7843 5.36684 11.9121 5.36159 13.3006V18.0716C5.36159 19.4286 6.54187 20.2274 7.86563 20.6176C8.6137 20.86 9.47462 21 10.3679 21C11.2612 21 12.1222 20.86 12.9288 20.601L12.8693 20.6176C14.1292 20.2528 15.3734 19.517 15.3734 18.0716V16.1608H10.3697V15.5247H17.8783C19.3342 15.5247 19.8766 14.5089 20.3832 12.9857C20.6282 12.2245 20.7691 11.3487 20.7691 10.4396C20.7691 9.53058 20.6282 8.65478 20.3666 7.83322L20.3832 7.89447C20.0236 6.44559 19.3333 5.35543 17.8783 5.35543H15.999ZM13.1852 17.4355H13.2001C13.7276 17.4355 14.1546 17.8634 14.1546 18.3901C14.1546 18.9168 13.7268 19.3446 13.2001 19.3446C12.6725 19.3446 12.2455 18.9168 12.2455 18.3901C12.2455 18.3892 12.2455 18.3875 12.2455 18.3866C12.2455 18.3848 12.2455 18.3822 12.2455 18.3805C12.2455 17.8599 12.6655 17.4382 13.1852 17.4355Z" fill="#669093"/>
</svg>
