<svg width="12" height="12" viewBox="0 0 12 12" fill="none" xmlns="http://www.w3.org/2000/svg">
<path fill-rule="evenodd" clip-rule="evenodd" d="M11.9871 9.15291C11.9822 9.11421 11.9619 9.00606 11.9419 8.91253L11.9055 8.74251L11.6155 8.74251L11.3256 8.74251L11.2267 8.53731C11.1723 8.42446 11.0855 8.27617 11.0337 8.20783L10.9395 8.08356L11.0814 7.83282L11.2234 7.5821L11.1597 7.51493C10.9894 7.33567 10.6223 7.10226 10.3253 6.98451C10.0054 6.85768 10.0315 6.8494 9.87128 7.12829L9.73209 7.37059L9.339 7.37059L8.9459 7.37059L8.80752 7.13054C8.73142 6.99851 8.6562 6.89035 8.64039 6.89016C8.58346 6.8895 8.22447 7.03106 8.07145 7.11448C7.88518 7.21604 7.63923 7.39437 7.53038 7.5068L7.45185 7.58794L7.59647 7.83472L7.74111 8.0815L7.64521 8.2068C7.59246 8.27573 7.50442 8.42446 7.44957 8.53731L7.34981 8.74251L7.06369 8.74251C6.73324 8.74251 6.76492 8.71626 6.71335 9.03265C6.66856 9.30757 6.66892 9.59682 6.71436 9.85925C6.76997 10.1803 6.73276 10.1496 7.066 10.1496L7.35632 10.1496L7.44203 10.3293C7.48917 10.4281 7.5755 10.5756 7.63388 10.657L7.74 10.805L7.59472 11.0529L7.44947 11.3007L7.50564 11.3607C7.69653 11.5645 8.22876 11.8769 8.53411 11.9644L8.65822 12L8.71213 11.9132C8.74177 11.8655 8.80585 11.7578 8.85453 11.674L8.943 11.5215L9.33907 11.5215L9.73515 11.5215L9.86186 11.7402C9.93153 11.8605 9.99497 11.9695 10.0028 11.9824C10.0202 12.011 10.3279 11.9094 10.5304 11.8083C10.709 11.7192 10.9675 11.5442 11.1174 11.411L11.2331 11.3082L11.0862 11.058L10.9393 10.8077L11.0476 10.6567C11.1071 10.5736 11.1931 10.4255 11.2385 10.3276L11.3211 10.1496L11.6126 10.1496L11.904 10.1496L11.93 10.0382C11.9931 9.76781 12.0172 9.3935 11.9871 9.15291ZM10.2676 9.7392C10.1779 10.0352 9.93869 10.2714 9.62679 10.3722C9.43515 10.4341 9.11343 10.4136 8.93426 10.3281C8.30915 10.0298 8.16739 9.22704 8.65537 8.74891C9.04676 8.36543 9.66475 8.37706 10.0428 8.77501C10.2973 9.04285 10.3762 9.38121 10.2676 9.7392ZM8.54845 4.85771C8.30656 4.76969 7.95921 4.63201 7.94688 4.61927C7.93838 4.6105 7.92778 4.40938 7.92332 4.17238L7.91522 3.74146L8.23329 3.60155C8.40822 3.52458 8.553 3.45995 8.555 3.45791C8.55701 3.45584 8.53368 3.3561 8.50315 3.23622C8.42723 2.93808 8.32133 2.65739 8.17137 2.35678C8.05616 2.12586 7.80576 1.72219 7.76043 1.69428C7.75015 1.68797 7.59925 1.74557 7.42507 1.82225L7.10839 1.96172L6.8639 1.72115C6.72942 1.58884 6.58495 1.45477 6.54284 1.4232L6.4663 1.36581L6.539 1.17879C6.57901 1.07593 6.63699 0.925371 6.66788 0.844228L6.72402 0.696695L6.57748 0.601786C6.21985 0.370178 5.62945 0.138758 5.14985 0.0422082C5.01544 0.0151451 4.90204 -0.00359275 4.89787 0.000581625C4.89368 0.00473255 4.83311 0.154705 4.76323 0.333828L4.63619 0.6595L4.34375 0.655748C4.18291 0.653684 3.98582 0.660462 3.90581 0.670804L3.76033 0.689589L3.62509 0.383382C3.55071 0.214952 3.48135 0.0674889 3.47098 0.0556693C3.42237 0.000347045 2.74023 0.219314 2.34316 0.417691C2.10424 0.537083 1.68347 0.802531 1.68347 0.83391C1.68347 0.844299 1.74744 0.993498 1.82559 1.16547L1.96773 1.47812L1.78247 1.65708C1.68057 1.75549 1.54427 1.89838 1.4796 1.97462L1.36199 2.11322L1.04538 1.99221C0.871221 1.92565 0.717724 1.8712 0.704247 1.8712C0.638395 1.8712 0.305793 2.51883 0.175645 2.90049C0.0864914 3.16183 -0.0222637 3.65434 0.00398238 3.67786C0.0141371 3.68698 0.165583 3.7491 0.340521 3.81589L0.658587 3.93733L0.658587 4.23514C0.658587 4.39892 0.663888 4.5954 0.670367 4.67174L0.682148 4.81052L0.375861 4.94666C0.207404 5.02154 0.0594442 5.08643 0.047075 5.09089C0.0177181 5.10146 0.123693 5.50253 0.23471 5.80095C0.377769 6.18563 0.767648 6.86638 0.844856 6.86638C0.861443 6.86638 1.01117 6.80534 1.17758 6.73074L1.48014 6.59512L1.66617 6.78798C1.7685 6.89408 1.90967 7.02498 1.97988 7.07892C2.05012 7.13284 2.10756 7.18788 2.10756 7.20125C2.10756 7.21461 2.05236 7.36731 1.9849 7.54057L1.86227 7.85559L1.92011 7.89952C2.03815 7.98912 2.42119 8.1875 2.67221 8.289C2.9302 8.39331 3.36901 8.5161 3.58449 8.54425L3.69789 8.55907L3.81239 8.25516C3.87539 8.08802 3.93371 7.94079 3.94198 7.92796C3.9506 7.91464 4.14358 7.89977 4.39292 7.89321L4.82879 7.88172L4.89323 8.02484C4.92867 8.10354 4.99412 8.2485 5.03865 8.34697L5.11962 8.526L5.26872 8.49218C5.72956 8.38766 6.2775 8.15181 6.69521 7.8782L6.91239 7.73594L6.79294 7.47117C6.59809 7.03929 6.59944 7.09236 6.77918 6.92707C6.92928 6.78904 7.10335 6.59988 7.17848 6.49308L7.21491 6.44132L7.55156 6.57056C7.86138 6.68951 7.8906 6.69664 7.91807 6.65998C8.01033 6.53686 8.22692 6.12494 8.31893 5.89764C8.42811 5.62788 8.54836 5.2062 8.57666 4.99384C8.59058 4.88944 8.5869 4.87171 8.54845 4.85771ZM6.18449 4.7983C5.95362 5.60473 5.24294 6.17224 4.39651 6.22604C3.20861 6.30155 2.21539 5.25753 2.34573 4.07037C2.41879 3.40507 2.81213 2.842 3.41516 2.53952C3.70583 2.39372 3.94059 2.33671 4.26334 2.33357C5.22294 2.32416 6.01841 2.96552 6.22044 3.91148C6.26645 4.12693 6.24827 4.57556 6.18449 4.7983Z" fill="white"/>
</svg>
