<svg width="20" height="20" viewBox="0 0 20 20" fill="none" xmlns="http://www.w3.org/2000/svg">
<path fill-rule="evenodd" clip-rule="evenodd" d="M2.26973 0.0618359C1.77977 0.193555 1.37789 0.53207 1.14004 1.01324C0.999258 1.29813 0.996094 1.31449 0.996094 1.75578C0.996094 2.18285 1.00281 2.22125 1.12168 2.47219C1.49371 3.25762 2.33406 3.66648 3.14316 3.45574C3.62719 3.32969 4.05738 2.98988 4.27332 2.56309L4.3843 2.34375H5.4148H6.44531V3.57164V4.79953L5.78398 4.81187C5.06223 4.82535 5.01676 4.83871 4.82664 5.09305C4.75309 5.19141 4.74504 5.265 4.73395 5.94023L4.72184 6.67969H3.57031C2.49328 6.67969 2.40879 6.68477 2.26461 6.75832C2.09129 6.84676 1.95312 7.0718 1.95312 7.26562C1.95312 7.45945 2.09129 7.68449 2.26461 7.77293C2.40879 7.84648 2.49328 7.85156 3.57266 7.85156H4.72656V8.63281V9.41406H2.59609C0.537969 9.41406 0.460391 9.41672 0.311484 9.49269C0.138164 9.58113 0 9.80617 0 10C0 10.1874 0.130078 10.4006 0.304023 10.4984L0.459844 10.5859H2.5932H4.72656V11.3672V12.1484H3.57266C2.49328 12.1484 2.40879 12.1535 2.26461 12.2271C2.09129 12.3155 1.95312 12.5405 1.95312 12.7344C1.95312 12.9218 2.0832 13.135 2.25715 13.2327C2.40883 13.318 2.44379 13.3203 3.56742 13.3203H4.72184L4.73395 14.0598C4.74504 14.735 4.75309 14.8086 4.82664 14.907C5.01676 15.1613 5.06223 15.1746 5.78398 15.1881L6.44531 15.2005V16.4284V17.6562H5.4148H4.3843L4.27223 17.4331C4.13656 17.1631 3.83641 16.8542 3.56969 16.7103C2.66422 16.2216 1.60035 16.5663 1.14004 17.4976C0.999258 17.7825 0.996094 17.7989 0.996094 18.2402C0.996094 18.6672 1.00281 18.7056 1.12168 18.9566C1.49371 19.742 2.33406 20.1509 3.14316 19.9401C3.62719 19.8141 4.05738 19.4743 4.27332 19.0475L4.3843 18.8281H5.76793C7.33836 18.8281 7.36094 18.8242 7.52961 18.5241C7.61633 18.3698 7.61719 18.353 7.61719 16.7818V15.1953H8.51562H9.41406V17.3648C9.41406 19.4621 9.41668 19.5395 9.49269 19.6885C9.58113 19.8618 9.80617 20 10 20C10.1938 20 10.4189 19.8618 10.5073 19.6885C10.5833 19.5395 10.5859 19.4621 10.5859 17.3648V15.1953H11.4844H12.3828V16.7818C12.3828 18.3253 12.385 18.3723 12.4655 18.5155C12.5111 18.5964 12.6145 18.6999 12.6955 18.7454C12.8377 18.8254 12.8893 18.8281 14.2293 18.8281H15.6158L15.7229 19.0469C16.0664 19.7491 16.9407 20.1414 17.7135 19.9401C18.2144 19.8096 18.6474 19.444 18.8783 18.9566C18.9971 18.7058 19.0039 18.667 19.0039 18.2422C19.0039 17.8174 18.9971 17.7786 18.8783 17.5278C18.3412 16.3938 16.9145 16.138 16.0318 17.0175C15.9208 17.1281 15.7818 17.3171 15.7229 17.4375L15.6158 17.6562H14.5853H13.5547V16.4284V15.2005L14.216 15.1881C14.9378 15.1746 14.9832 15.1613 15.1734 14.907C15.2469 14.8086 15.255 14.735 15.2661 14.0598L15.2782 13.3203H16.4297C17.5067 13.3203 17.5912 13.3152 17.7354 13.2417C17.9087 13.1532 18.0469 12.9282 18.0469 12.7344C18.0469 12.5405 17.9087 12.3155 17.7354 12.2271C17.5912 12.1535 17.5067 12.1484 16.4273 12.1484H15.2734V11.3672V10.5859H17.4039C19.462 10.5859 19.5396 10.5833 19.6885 10.5073C19.8618 10.4189 20 10.1938 20 10C20 9.80617 19.8618 9.58113 19.6885 9.49269C19.5396 9.41672 19.462 9.41406 17.4039 9.41406H15.2734V8.63281V7.85156H16.4273C17.5067 7.85156 17.5912 7.84648 17.7354 7.77293C17.9087 7.68449 18.0469 7.45945 18.0469 7.26562C18.0469 7.0718 17.9087 6.84676 17.7354 6.75832C17.5912 6.68477 17.5067 6.67969 16.4297 6.67969H15.2782L15.2661 5.94023C15.255 5.265 15.2469 5.19141 15.1734 5.09305C14.9832 4.83871 14.9378 4.82535 14.216 4.81187L13.5547 4.79953V3.57164V2.34375H14.5853H15.6158L15.7229 2.56254C16.0664 3.26469 16.9407 3.65703 17.7135 3.45574C18.2144 3.32527 18.6474 2.95961 18.8783 2.47219C18.9971 2.22145 19.0039 2.18262 19.0039 1.75781C19.0039 1.33301 18.9971 1.29418 18.8783 1.04344C18.3412 -0.0905469 16.9145 -0.346328 16.0318 0.533164C15.9208 0.64375 15.7818 0.832734 15.7229 0.953086L15.6158 1.17188H14.2293C12.8893 1.17188 12.8377 1.17465 12.6955 1.25461C12.6145 1.30012 12.5111 1.40355 12.4655 1.48453C12.385 1.62773 12.3828 1.67469 12.3828 3.2182V4.80469H11.4844H10.5859V2.63516C10.5859 0.537891 10.5833 0.460508 10.5073 0.311484C10.4189 0.138164 10.1938 0 10 0C9.80617 0 9.58113 0.138164 9.49269 0.311484C9.41668 0.460508 9.41406 0.537891 9.41406 2.63516V4.80469H8.51562H7.61719V3.2182C7.61719 0.990078 7.78148 1.17188 5.76793 1.17188H4.3843L4.27223 0.94875C3.91633 0.240273 3.04355 -0.146289 2.26973 0.0618359ZM9.14488 7.38363C9.83836 7.51516 10.4021 8.07242 10.5468 8.76941C10.5735 8.89789 10.5845 9.55957 10.5774 10.6148C10.5668 12.2066 10.5638 12.2635 10.4859 12.3678C10.3415 12.5611 10.2049 12.6367 10 12.6367C9.79516 12.6367 9.65859 12.5612 9.51414 12.3679C9.44129 12.2705 9.43242 12.1951 9.42133 11.5793L9.40902 10.8984H8.82812H8.24723L8.23492 11.5793C8.22383 12.1951 8.21496 12.2705 8.14211 12.3679C7.99766 12.5612 7.86109 12.6367 7.65625 12.6367C7.45137 12.6367 7.31477 12.5611 7.17039 12.3678C7.09246 12.2635 7.08949 12.2066 7.07883 10.6148C7.07176 9.55957 7.08273 8.89789 7.10941 8.76941C7.30484 7.82805 8.21625 7.2075 9.14488 7.38363ZM12.6505 7.45074C12.7047 7.49121 12.7853 7.57289 12.8296 7.63223C12.9088 7.73828 12.9102 7.77844 12.9102 10C12.9102 12.2216 12.9088 12.2617 12.8296 12.3678C12.6853 12.5611 12.5487 12.6367 12.3438 12.6367C12.1389 12.6367 12.0022 12.5611 11.8579 12.3678C11.7791 12.2624 11.7771 12.2114 11.7659 10.1046C11.7595 8.91914 11.7646 7.89262 11.7771 7.8234C11.8054 7.66762 11.9689 7.46824 12.127 7.39664C12.2764 7.32898 12.5212 7.35426 12.6505 7.45074ZM8.61328 8.56871C8.33277 8.69828 8.24219 8.8957 8.24219 9.37754V9.72656H8.83168H9.42117L9.40785 9.31914C9.39684 8.98184 9.38066 8.89316 9.31398 8.80398C9.12879 8.55621 8.84598 8.46125 8.61328 8.56871Z" fill="#669093"/>
</svg>
