<svg width="20" height="20" viewBox="0 0 20 20" fill="none" xmlns="http://www.w3.org/2000/svg">
<path fill-rule="evenodd" clip-rule="evenodd" d="M9.10299 0.0236656C7.1704 0.212879 5.38422 0.924853 3.81813 2.13021C3.05548 2.71717 2.06507 3.82029 1.49272 4.72015C1.24554 5.10879 0.76437 6.09359 0.592 6.56357C0.399273 7.08911 0.193862 7.8922 0.0927815 8.51536C-0.0309272 9.27808 -0.0309272 10.7262 0.0927815 11.4889C0.267696 12.5672 0.544396 13.4388 1.01801 14.4038C1.53547 15.4581 2.07353 16.2054 2.93514 17.0665C3.7968 17.9277 4.54453 18.4654 5.59938 18.9826C6.56493 19.4559 7.43708 19.7325 8.51593 19.9073C9.27908 20.0309 10.728 20.0309 11.4912 19.9073C12.57 19.7325 13.4422 19.4559 14.4077 18.9826C15.4626 18.4654 16.2103 17.9277 17.072 17.0665C17.9336 16.2054 18.4717 15.4581 18.9891 14.4038C19.3328 13.7035 19.5057 13.2446 19.6908 12.5408C19.9374 11.6036 20 11.0899 20 10.0021C20 8.91445 19.9374 8.40069 19.6908 7.46346C19.5057 6.75971 19.3328 6.30076 18.9891 5.60048C18.4717 4.54623 17.9336 3.79893 17.072 2.93777C16.2103 2.07664 15.4626 1.5389 14.4077 1.02173C13.4431 0.548814 12.5537 0.266677 11.5108 0.1027C10.9353 0.0122408 9.65041 -0.0299369 9.10299 0.0236656ZM7.76283 3.8055C7.82179 3.84842 7.9096 3.96107 7.95806 4.05579C8.04106 4.21812 8.04615 4.27509 8.04615 5.04145V5.8548H8.85996C9.62676 5.8548 9.68376 5.85989 9.84619 5.94283C10.047 6.04542 10.1524 6.17536 10.1978 6.37623C10.2612 6.65723 10.1368 6.93726 9.88201 7.08727C9.76229 7.15777 9.66469 7.16681 8.89762 7.17863L8.04615 7.19169L8.04529 8.00027C8.04454 8.70407 8.03499 8.82958 7.97157 8.96919C7.8699 9.19287 7.69107 9.30993 7.42232 9.32871C7.17107 9.34628 6.99756 9.25586 6.84328 9.02705C6.75743 8.89974 6.75425 8.86456 6.75425 8.04006V7.18508L5.98108 7.18485C5.55581 7.18473 5.14236 7.16646 5.0623 7.14423C4.77386 7.06418 4.56195 6.79723 4.56195 6.51399C4.56195 6.32204 4.7048 6.06538 4.86813 5.96388C5.00507 5.87878 5.05502 5.87374 5.8832 5.86188L6.75425 5.84944V5.00643C6.75425 4.22149 6.75993 4.15337 6.83682 4.0167C6.96107 3.79572 7.15427 3.69708 7.43007 3.71383C7.57609 3.72267 7.69354 3.75503 7.76283 3.8055ZM13.9832 5.72338C14.2516 5.85069 14.3899 6.14641 14.3317 6.46884C14.3076 6.60218 13.9071 7.0159 10.5002 10.4267C8.27704 12.6523 6.64315 14.2584 6.56955 14.2904C6.07444 14.5056 5.57624 14.0849 5.67544 13.5355C5.69952 13.4021 6.10001 12.9884 9.50697 9.57767C11.5995 7.48279 13.3644 5.74482 13.429 5.71551C13.5892 5.64285 13.8203 5.6461 13.9832 5.72338ZM15.3789 12.861C15.5734 12.9106 15.6838 12.9941 15.7943 13.1751C15.9619 13.4498 15.8564 13.8623 15.5736 14.038L15.4256 14.1299H13.0571C10.8831 14.1299 10.6785 14.1244 10.5645 14.0621C10.1728 13.8479 10.126 13.2229 10.4827 12.9691C10.5471 12.9233 10.655 12.8726 10.7225 12.8565C10.9226 12.8088 15.1901 12.813 15.3789 12.861Z" fill="#669093"/>
</svg>
