<svg width="21" height="22" viewBox="0 0 21 22" fill="none" xmlns="http://www.w3.org/2000/svg">
<path fill-rule="evenodd" clip-rule="evenodd" d="M2.34982 0.0693675C1.51713 0.250052 0.72113 0.870714 0.33639 1.6394C-0.0106177 2.33275 3.56517e-05 2.15925 3.56517e-05 7.13032C3.56517e-05 12.1018 -0.0106176 11.9282 0.336625 12.6212C0.678047 13.3027 1.28946 13.8291 2.0711 14.1146L2.41534 14.2404L10.3576 14.2529C19.2431 14.2669 18.6592 14.288 19.3783 13.926C20.0774 13.574 20.6544 12.8906 20.8959 12.1285L21 11.8V7.13032V2.46069L20.8959 2.13217C20.654 1.3686 20.0765 0.683553 19.3809 0.335044C18.6655 -0.0234151 19.2384 -0.00192071 10.4875 0.00136446C3.98701 0.00375794 2.59879 0.0153969 2.34982 0.0693675ZM4.38855 3.86651C4.45191 3.92986 4.50316 4.03015 4.5024 4.08943C4.50165 4.14865 4.15451 5.58024 3.73095 7.27069C2.90164 10.5805 2.92609 10.5093 2.61921 10.5093C2.4519 10.5093 2.25052 10.3237 2.25244 10.1712C2.25319 10.112 2.60034 8.6804 3.02389 6.98995C3.85321 3.68014 3.82876 3.75129 4.13564 3.75129C4.21932 3.75129 4.31862 3.79653 4.38855 3.86651ZM6.57262 3.80029C6.67474 3.85496 7.50735 5.48065 7.50735 5.62543C7.50735 5.78237 7.30545 5.97267 7.13894 5.97267C6.93493 5.97267 6.80995 5.84052 6.59276 5.39505C6.49176 5.18789 6.39649 5.01843 6.381 5.01843C6.36552 5.01843 6.27025 5.18789 6.16925 5.39505C5.95206 5.84052 5.82708 5.97267 5.62307 5.97267C5.45656 5.97267 5.25466 5.78237 5.25466 5.62543C5.25466 5.49013 6.08276 3.85947 6.18028 3.80268C6.2886 3.73965 6.45736 3.73862 6.57262 3.80029ZM11.1466 3.86651C11.2193 3.93911 11.2618 4.03532 11.2618 4.12674C11.2618 4.21816 11.2193 4.31437 11.1466 4.38697C11.0357 4.49796 11.0081 4.50219 10.3957 4.50219H9.76003V7.13032V9.75845H10.3957C11.0081 9.75845 11.0357 9.76268 11.1466 9.87367C11.2193 9.94627 11.2618 10.0425 11.2618 10.1339C11.2618 10.2253 11.2193 10.3215 11.1466 10.3941C11.0324 10.5084 11.0242 10.5093 10.1355 10.5093C9.2468 10.5093 9.23858 10.5084 9.12435 10.3941L9.00914 10.279V7.13032V3.98167L9.12435 3.86651C9.23858 3.75223 9.2468 3.75129 10.1355 3.75129C11.0242 3.75129 11.0324 3.75223 11.1466 3.86651ZM14.9011 3.86651L15.0163 3.98167V7.13032V10.279L14.9011 10.3941C14.7869 10.5084 14.7786 10.5093 13.89 10.5093C13.0013 10.5093 12.9931 10.5084 12.8788 10.3941C12.8062 10.3215 12.7636 10.2253 12.7636 10.1339C12.7636 10.0425 12.8062 9.94627 12.8788 9.87367C12.9898 9.76268 13.0173 9.75845 13.6297 9.75845H14.2654V7.13032V4.50219H13.6297C13.0173 4.50219 12.9898 4.49796 12.8788 4.38697C12.8062 4.31437 12.7636 4.21816 12.7636 4.12674C12.7636 4.03532 12.8062 3.93911 12.8788 3.86651C12.9931 3.75223 13.0013 3.75129 13.89 3.75129C14.7786 3.75129 14.7869 3.75223 14.9011 3.86651ZM18.6556 3.86651C18.7189 3.92986 18.7702 4.03015 18.7694 4.08943C18.7687 4.14865 18.4215 5.58024 17.998 7.27069C17.1686 10.5805 17.1931 10.5093 16.8862 10.5093C16.7189 10.5093 16.5175 10.3237 16.5195 10.1712C16.5202 10.112 16.8674 8.6804 17.2909 6.98995C18.1202 3.68014 18.0958 3.75129 18.4027 3.75129C18.4863 3.75129 18.5856 3.79653 18.6556 3.86651ZM9.01913 16.6539C9.03204 18.2253 9.03659 18.2985 9.12937 18.4227C9.36825 18.7425 9.38219 18.7457 10.5109 18.7457C11.6397 18.7457 11.6536 18.7425 11.8925 18.4227C11.9853 18.2985 11.9898 18.2253 12.0027 16.6539L12.0162 15.0147H10.5109H9.00567L9.01913 16.6539ZM6.77504 17.334C6.35402 17.4657 6.19305 17.6339 5.36762 18.8039C4.93497 19.4172 4.56046 19.9938 4.5353 20.0851C4.44055 20.4299 4.62978 20.8209 4.95764 20.9579C5.1852 21.053 15.8367 21.053 16.0642 20.9579C16.3921 20.8209 16.5813 20.4299 16.4866 20.0851C16.4614 19.9938 16.0869 19.4172 15.6542 18.8039C14.6072 17.3196 14.5303 17.2674 13.3954 17.2674H12.7749L12.7544 17.8423C12.7363 18.3474 12.7188 18.4463 12.6105 18.6569C12.4294 19.009 12.2867 19.1572 11.9564 19.3363L11.6607 19.4966H10.5109H9.36112L9.12144 19.3701C8.76538 19.1823 8.61961 19.0409 8.44423 18.7129C8.29424 18.4326 8.28504 18.3874 8.2665 17.8423L8.24693 17.2674L7.60726 17.2706C7.2267 17.2724 6.88964 17.2981 6.77504 17.334Z" fill="#669093"/>
</svg>
