<svg width="17" height="17" viewBox="0 0 17 17" fill="none" xmlns="http://www.w3.org/2000/svg">
<path d="M7.88153 1.78686C8.07748 1.34727 8.17545 1.12747 8.31188 1.05977C8.43039 1.00097 8.56958 1.00097 8.68808 1.05977C8.82451 1.12747 8.92249 1.34727 9.11844 1.78687L10.6792 5.28834C10.7371 5.4183 10.7661 5.48327 10.8109 5.53303C10.8506 5.57706 10.8991 5.61227 10.9532 5.63639C11.0144 5.66364 11.0851 5.6711 11.2266 5.68604L15.039 6.08842C15.5176 6.13893 15.757 6.16419 15.8635 6.27302C15.956 6.36756 15.9991 6.49993 15.9798 6.63081C15.9575 6.78148 15.7788 6.94258 15.4212 7.26479L12.5734 9.8312C12.4678 9.92645 12.4149 9.97407 12.3814 10.0321C12.3518 10.0834 12.3333 10.1404 12.3271 10.1993C12.3201 10.2659 12.3348 10.3355 12.3644 10.4747L13.1598 14.2248C13.2596 14.6957 13.3096 14.9311 13.239 15.066C13.1777 15.1833 13.0651 15.2651 12.9346 15.2872C12.7845 15.3126 12.576 15.1923 12.1591 14.9519L8.83828 13.0365C8.71503 12.9654 8.65341 12.9299 8.5879 12.916C8.52993 12.9037 8.47003 12.9037 8.41207 12.916C8.34656 12.9299 8.28493 12.9654 8.16168 13.0365L4.84086 14.9519C4.42395 15.1923 4.21549 15.3126 4.06533 15.2872C3.93489 15.2651 3.82228 15.1833 3.76097 15.066C3.69039 14.9311 3.74032 14.6957 3.84018 14.2248L4.6356 10.4747C4.66512 10.3355 4.67988 10.2659 4.67287 10.1993C4.66666 10.1404 4.64815 10.0834 4.61853 10.0321C4.58506 9.97407 4.53221 9.92645 4.42651 9.8312L1.57872 7.26479C1.22119 6.94258 1.04243 6.78148 1.02021 6.63081C1.0009 6.49993 1.04391 6.36756 1.13646 6.27302C1.243 6.16419 1.48232 6.13893 1.96095 6.08842L5.77336 5.68604C5.91486 5.6711 5.9856 5.66364 6.04678 5.63639C6.10091 5.61227 6.14937 5.57706 6.18903 5.53303C6.23385 5.48327 6.26282 5.4183 6.32074 5.28834L7.88153 1.78686Z" fill="#B0C9CC" stroke="#B0C9CC" stroke-width="2" stroke-linecap="round" stroke-linejoin="round"/>
</svg>
